<svg id="Layer_2" data-name="Layer 2" xmlns="http://www.w3.org/2000/svg" viewBox="0 0 621.67 794.87"><defs><style>.cls-1{fill:#923127;}.cls-2{fill:#d1d1cc;}.cls-11,.cls-3,.cls-4,.cls-9{fill:none;}.cls-3{stroke:#939393;}.cls-11,.cls-3,.cls-4,.cls-6,.cls-9{stroke-miterlimit:10;}.cls-11,.cls-3,.cls-6{stroke-width:3px;}.cls-4{stroke:#919191;stroke-width:10px;}.cls-5{fill:#7b7b7b;}.cls-6{fill:#3f503f;stroke:#3f503f;}.cls-7{fill:#56211a;}.cls-8{fill:#4c4c4d;}.cls-9{stroke:#2c3a2c;}.cls-10{fill:#eaeae8;}.cls-11{stroke:#232323;}.cls-12{fill:#b01e24;}.cls-13,.cls-16{font-size:74.5px;}.cls-13,.cls-16,.cls-18{fill:#231f20;font-family:QuantifyBold, Quantify;font-weight:700;}.cls-13{letter-spacing:0.1em;}.cls-14,.cls-17{font-size:54.51px;}.cls-14{letter-spacing:0.1em;}.cls-15{letter-spacing:0.1em;}.cls-16{letter-spacing:0.2em;}.cls-17{letter-spacing:0.2em;}.cls-18{font-size:16.35px;letter-spacing:0.15em;}</style></defs><title>Hack the Hill COLOR </title><polygon class="cls-1" points="232.4 679.73 208.6 341.72 410.88 341.72 390.06 679.73 232.4 679.73"/><polygon class="cls-2" points="207.97 341.72 201.66 247.41 418.48 248.03 412.29 341.72 207.97 341.72"/><polygon class="cls-2" points="201.59 246.9 416.72 247.64 416.8 245.25 416.85 243.74 419.45 159.61 354.81 151.95 262.3 151.95 199.82 159.61 201.59 246.9"/><path class="cls-3" d="M356.35,266.13" transform="translate(2.47 -18.72)"/><path class="cls-3" d="M356.35,170.44" transform="translate(2.47 -18.72)"/><line class="cls-4" x1="196.7" y1="247.41" x2="423.52" y2="248.15"/><polygon class="cls-5" points="262.31 152.32 358.82 152.22 358.82 118.13 262.31 118.13 262.31 152.32"/><path class="cls-6" d="M210.71,146l48.22-9.14,97.42,1.82L405,146.24s-6-33.56-59.59-53.88c0,0-23.71-10.31-83.48,2.11C261.91,94.47,234.27,100.62,210.71,146Z" transform="translate(2.47 -18.72)"/><circle class="cls-6" cx="315.07" cy="31.38" r="19.19"/><line class="cls-6" x1="309.74" y1="74.01" x2="310.11" y2="46.15"/><line class="cls-6" x1="321.59" y1="74.7" x2="321.59" y2="46.15"/><line class="cls-6" x1="315.07" y1="16.94" x2="315.07"/><polygon class="cls-2" points="408.67 378.96 410.88 341.72 207.97 341.72 211.39 378.06 408.67 378.96"/><line class="cls-4" x1="202.16" y1="341.72" x2="417.08" y2="341.72"/><line class="cls-4" x1="215.48" y1="434.54" x2="405.16" y2="434.54"/><line class="cls-4" x1="221.2" y1="506.76" x2="400.47" y2="506.76"/><polygon class="cls-7" points="287.88 583.12 281.25 447.56 337.6 447.56 331.8 583.12 287.88 583.12"/><path class="cls-8" d="M280,249.15h53.9V195s-7.57-13.69-20-15.15c0,0-15.14-2.91-23.62,3.79,0,0-7.57,5-10.3,10.78Z" transform="translate(2.47 -18.72)"/><line class="cls-9" x1="308.46" y1="50.57" x2="308.46" y2="68.71"/><line class="cls-9" x1="320.48" y1="51.17" x2="320.48" y2="68.28"/><polygon class="cls-8" points="199.82 160.47 262.31 152.32 358.82 152.22 419.45 160.47 420.86 130.76 358.82 119.95 262.64 118.64 198.02 131.98 199.82 160.47"/><path class="cls-8" d="M206.9,251l50.55-1.82v-49s-7.1-12.84-18.74-14.21c0,0-14.2-2.73-22.15,3.55,0,0-7.1,4.64-9.66,10.11Z" transform="translate(2.47 -18.72)"/><path class="cls-8" d="M357.67,248.24,408.23,251V200.15s-7.1-12.84-18.74-14.21c0,0-14.2-2.73-22.15,3.55,0,0-7.1,4.64-9.66,10.11Z" transform="translate(2.47 -18.72)"/><circle class="cls-10" cx="310.57" cy="295.38" r="29.07"/><line class="cls-11" x1="310.57" y1="295.38" x2="320.63" y2="286.75"/><line class="cls-11" x1="295.82" y1="279.03" x2="311.47" y2="296.29"/><path class="cls-12" d="M-2.47,737.63s46.29-64.58,104.44-101,80.57-40.34,123-51.87c0,0,69.59-15.54,119.21-7.55,0,0,69.86,7.48,111,27.79,0,0,43.7,18.92,68.36,37.47s28,20,42.15,33.78c0,0,27,25.71,40.13,43.36l13.44,18.07V813H-2.47Z" transform="translate(2.47 -18.72)"/><text class="cls-13" transform="translate(190.22 670.64)">H<tspan class="cls-14" x="72.11" y="-20.29">A</tspan><tspan class="cls-14" x="134.96" y="-19.38">C</tspan><tspan class="cls-15" x="192.2" y="0">K</tspan></text><text class="cls-16" transform="translate(211.56 754.19)">H<tspan class="cls-17" x="79.56" y="0">IL</tspan><tspan x="164.22" y="0">L</tspan></text><text class="cls-18" transform="translate(305.37 680.52)">the</text></svg>